<svg width="510" height="477" viewBox="0 0 510 477" fill="none" xmlns="http://www.w3.org/2000/svg">
<path d="M153.875 70V3.625H165.665C171.425 3.625 176.42 4.915 180.65 7.495C184.88 10.045 188.15 13.795 190.46 18.745C192.8 23.665 193.97 29.71 193.97 36.88C193.97 44.02 192.8 50.065 190.46 55.015C188.15 59.935 184.88 63.67 180.65 66.22C176.42 68.74 171.425 70 165.665 70H153.875ZM165.71 4.885H155.36V68.74H165.71C171.17 68.74 175.91 67.495 179.93 65.005C183.95 62.485 187.055 58.855 189.245 54.115C191.435 49.345 192.53 43.6 192.53 36.88C192.53 30.13 191.435 24.37 189.245 19.6C187.055 14.83 183.95 11.185 179.93 8.665C175.91 6.145 171.17 4.885 165.71 4.885ZM229.054 70.765C224.254 70.765 219.994 69.4 216.274 66.67C212.554 63.91 209.629 59.995 207.499 54.925C205.399 49.825 204.349 43.765 204.349 36.745C204.349 29.695 205.414 23.665 207.544 18.655C209.674 13.615 212.599 9.76 216.319 7.08999C220.069 4.39 224.314 3.04 229.054 3.04C233.824 3.04 238.069 4.39 241.789 7.08999C245.509 9.76 248.434 13.615 250.564 18.655C252.694 23.665 253.759 29.695 253.759 36.745C253.759 43.765 252.694 49.825 250.564 54.925C248.464 59.995 245.554 63.91 241.834 66.67C238.114 69.4 233.854 70.765 229.054 70.765ZM229.054 69.505C233.614 69.505 237.649 68.155 241.159 65.455C244.669 62.725 247.414 58.9 249.394 53.98C251.374 49.06 252.364 43.315 252.364 36.745C252.364 30.145 251.359 24.415 249.349 19.555C247.339 14.695 244.579 10.945 241.069 8.305C237.589 5.635 233.584 4.3 229.054 4.3C224.554 4.3 220.549 5.635 217.039 8.305C213.529 10.945 210.769 14.695 208.759 19.555C206.749 24.415 205.744 30.145 205.744 36.745C205.744 43.345 206.749 49.105 208.759 54.025C210.769 58.915 213.529 62.725 217.039 65.455C220.549 68.155 224.554 69.505 229.054 69.505ZM173.495 93.625C179.375 93.625 184.01 94.855 187.4 97.315C190.79 99.775 192.485 103.78 192.485 109.33C192.485 112.78 191.765 115.66 190.325 117.97C188.915 120.28 187.085 122.02 184.835 123.19C182.615 124.36 180.275 124.99 177.815 125.08C180.515 125.14 183.08 125.725 185.51 126.835C187.97 127.945 189.98 129.715 191.54 132.145C193.1 134.575 193.88 137.785 193.88 141.775C193.88 147.745 192.11 152.275 188.57 155.365C185.03 158.455 179.855 160 173.045 160H152.84V93.625H173.495ZM172.235 98.53H158.285V122.83H170.12C175.34 122.83 179.435 121.795 182.405 119.725C185.375 117.625 186.86 114.415 186.86 110.095C186.86 105.745 185.495 102.73 182.765 101.05C180.065 99.37 176.555 98.53 172.235 98.53ZM172.01 155.095C176.93 155.095 180.845 154 183.755 151.81C186.695 149.62 188.165 146.185 188.165 141.505C188.165 137.815 187.31 134.98 185.6 133C183.92 130.99 181.73 129.61 179.03 128.86C176.33 128.11 173.45 127.735 170.39 127.735H158.285V155.095H172.01ZM206.805 160V93.625H228.585C234.405 93.625 238.845 95.02 241.905 97.81C244.995 100.6 246.54 104.935 246.54 110.815C246.54 114.415 245.865 117.46 244.515 119.95C243.165 122.44 241.56 124.375 239.7 125.755C237.84 127.105 236.145 127.87 234.615 128.05C236.145 128.17 237.69 128.605 239.25 129.355C240.84 130.105 242.16 131.26 243.21 132.82C244.26 134.38 244.785 136.45 244.785 139.03V155.005C244.785 156.235 244.875 157.315 245.055 158.245C245.265 159.145 245.475 159.73 245.685 160H240.06C239.88 159.7 239.685 159.115 239.475 158.245C239.295 157.345 239.205 156.265 239.205 155.005V139.795C239.205 136.645 238.185 134.335 236.145 132.865C234.135 131.365 231.36 130.615 227.82 130.615H212.295V160H206.805ZM227.28 98.53H212.295V125.665H227.91C230.25 125.665 232.395 125.08 234.345 123.91C236.325 122.71 237.9 121.03 239.07 118.87C240.24 116.71 240.825 114.175 240.825 111.265C240.825 106.705 239.67 103.45 237.36 101.5C235.05 99.52 231.69 98.53 227.28 98.53ZM256.749 160L275.604 93.4H284.199L302.919 160H297.114L292.029 141.505H267.684L262.554 160H256.749ZM269.034 136.6H290.679L279.879 97.405L269.034 136.6ZM332.758 160.855C325.978 160.855 320.773 159.235 317.143 155.995C313.513 152.755 311.698 147.88 311.698 141.37V138.13H317.278V141.28C317.278 146.35 318.583 150.04 321.193 152.35C323.833 154.66 327.643 155.815 332.623 155.815C343.003 155.815 348.193 151.855 348.193 143.935C348.193 141.145 347.503 138.835 346.123 137.005C344.743 135.145 342.808 133.585 340.318 132.325C337.828 131.065 334.918 129.91 331.588 128.86C327.778 127.63 324.403 126.175 321.463 124.495C318.553 122.785 316.273 120.685 314.623 118.195C313.003 115.705 312.193 112.66 312.193 109.06C312.193 103.81 314.008 99.805 317.638 97.045C321.298 94.285 326.173 92.905 332.263 92.905C338.743 92.905 343.843 94.42 347.563 97.45C351.313 100.45 353.188 105.07 353.188 111.31V114.955H347.608V111.535C347.608 106.675 346.288 103.195 343.648 101.095C341.038 98.995 337.273 97.945 332.353 97.945C327.673 97.945 324.043 98.845 321.463 100.645C318.913 102.445 317.638 105.25 317.638 109.06C317.638 111.88 318.388 114.235 319.888 116.125C321.388 117.985 323.443 119.56 326.053 120.85C328.693 122.11 331.678 123.295 335.008 124.405C338.938 125.695 342.283 127.15 345.043 128.77C347.833 130.36 349.963 132.355 351.433 134.755C352.933 137.125 353.683 140.11 353.683 143.71C353.683 149.11 351.853 153.325 348.193 156.355C344.533 159.355 339.388 160.855 332.758 160.855ZM365.947 160V93.625H371.437V160H365.947ZM385.75 160V93.625H391.33V155.095H418.06V160H385.75ZM155.225 250H153.875V183.625H168.41C173.57 183.625 177.725 184.555 180.875 186.415C184.055 188.245 186.365 190.69 187.805 193.75C189.275 196.81 190.01 200.185 190.01 203.875C190.01 207.535 189.245 210.91 187.715 214C186.215 217.09 183.875 219.565 180.695 221.425C177.515 223.255 173.42 224.17 168.41 224.17H155.225V250ZM168.005 184.885H155.225V222.91H168.005C172.865 222.91 176.81 222.055 179.84 220.345C182.87 218.635 185.09 216.34 186.5 213.46C187.91 210.58 188.615 207.385 188.615 203.875C188.615 200.365 187.94 197.17 186.59 194.29C185.27 191.41 183.095 189.13 180.065 187.45C177.065 185.74 173.045 184.885 168.005 184.885ZM192.22 250L212.2 183.31H214.045L233.89 250H232.36L226.33 229.705H199.78L193.75 250H192.22ZM200.14 228.445H225.97L213.1 184.93L200.14 228.445ZM245.809 250V183.625H265.024C270.244 183.625 274.309 184.93 277.219 187.54C280.129 190.12 281.584 194.35 281.584 200.23C281.584 203.89 280.894 206.995 279.514 209.545C278.134 212.065 276.514 214.015 274.654 215.395C272.824 216.775 271.204 217.57 269.794 217.78C271.204 217.9 272.674 218.32 274.204 219.04C275.734 219.76 277.024 220.87 278.074 222.37C279.124 223.84 279.649 225.805 279.649 228.265V245.905C279.649 247.015 279.739 247.945 279.919 248.695C280.129 249.415 280.279 249.85 280.369 250H278.929C278.839 249.85 278.704 249.415 278.524 248.695C278.344 247.975 278.254 247.045 278.254 245.905V228.58C278.254 224.98 277.069 222.4 274.699 220.84C272.359 219.28 269.284 218.5 265.474 218.5H247.159V250H245.809ZM264.709 184.885H247.159V217.24H265.474C268.084 217.24 270.499 216.55 272.719 215.17C274.969 213.79 276.769 211.84 278.119 209.32C279.499 206.77 280.189 203.74 280.189 200.23C280.189 194.8 278.869 190.885 276.229 188.485C273.619 186.085 269.779 184.885 264.709 184.885ZM294.173 250L314.153 183.31H315.998L335.843 250H334.313L328.283 229.705H301.733L295.703 250H294.173ZM302.093 228.445H327.923L315.053 184.93L302.093 228.445ZM393.409 250.765C388.609 250.765 384.349 249.4 380.629 246.67C376.909 243.91 373.984 239.995 371.854 234.925C369.754 229.825 368.704 223.765 368.704 216.745C368.704 209.695 369.769 203.665 371.899 198.655C374.029 193.615 376.954 189.76 380.674 187.09C384.424 184.39 388.669 183.04 393.409 183.04C398.179 183.04 402.424 184.39 406.144 187.09C409.864 189.76 412.789 193.615 414.919 198.655C417.049 203.665 418.114 209.695 418.114 216.745C418.114 223.765 417.049 229.825 414.919 234.925C412.819 239.995 409.909 243.91 406.189 246.67C402.469 249.4 398.209 250.765 393.409 250.765ZM393.409 249.505C397.969 249.505 402.004 248.155 405.514 245.455C409.024 242.725 411.769 238.9 413.749 233.98C415.729 229.06 416.719 223.315 416.719 216.745C416.719 210.145 415.714 204.415 413.704 199.555C411.694 194.695 408.934 190.945 405.424 188.305C401.944 185.635 397.939 184.3 393.409 184.3C388.909 184.3 384.904 185.635 381.394 188.305C377.884 190.945 375.124 194.695 373.114 199.555C371.104 204.415 370.099 210.145 370.099 216.745C370.099 223.345 371.104 229.105 373.114 234.025C375.124 238.915 377.884 242.725 381.394 245.455C384.904 248.155 388.909 249.505 393.409 249.505ZM200.36 273.625H202.52V340H201.17V275.335L179.795 340H177.41L156.125 275.335V340H154.775V273.625H156.935L178.625 338.92L200.36 273.625ZM260.578 315.025C260.578 323.875 258.763 330.385 255.133 334.555C251.533 338.695 246.448 340.765 239.878 340.765C233.308 340.765 228.208 338.695 224.578 334.555C220.978 330.385 219.178 323.875 219.178 315.025V273.625H220.528V314.53C220.528 323.17 222.223 329.5 225.613 333.52C229.033 337.51 233.788 339.505 239.878 339.505C245.968 339.505 250.708 337.51 254.098 333.52C257.518 329.5 259.228 323.17 259.228 314.53V273.625H260.578V315.025ZM277.657 340H276.307V273.625H278.467L314.962 338.605V273.625H316.312V340H314.062L277.657 274.975V340ZM332.029 340V273.625H343.819C349.579 273.625 354.574 274.915 358.804 277.495C363.034 280.045 366.304 283.795 368.614 288.745C370.954 293.665 372.124 299.71 372.124 306.88C372.124 314.02 370.954 320.065 368.614 325.015C366.304 329.935 363.034 333.67 358.804 336.22C354.574 338.74 349.579 340 343.819 340H332.029ZM343.864 274.885H333.514V338.74H343.864C349.324 338.74 354.064 337.495 358.084 335.005C362.104 332.485 365.209 328.855 367.399 324.115C369.589 319.345 370.684 313.6 370.684 306.88C370.684 300.13 369.589 294.37 367.399 289.6C365.209 284.83 362.104 281.185 358.084 278.665C354.064 276.145 349.324 274.885 343.864 274.885ZM407.208 340.765C402.408 340.765 398.148 339.4 394.428 336.67C390.708 333.91 387.783 329.995 385.653 324.925C383.553 319.825 382.503 313.765 382.503 306.745C382.503 299.695 383.568 293.665 385.698 288.655C387.828 283.615 390.753 279.76 394.473 277.09C398.223 274.39 402.468 273.04 407.208 273.04C411.978 273.04 416.223 274.39 419.943 277.09C423.663 279.76 426.588 283.615 428.718 288.655C430.848 293.665 431.913 299.695 431.913 306.745C431.913 313.765 430.848 319.825 428.718 324.925C426.618 329.995 423.708 333.91 419.988 336.67C416.268 339.4 412.008 340.765 407.208 340.765ZM407.208 339.505C411.768 339.505 415.803 338.155 419.313 335.455C422.823 332.725 425.568 328.9 427.548 323.98C429.528 319.06 430.518 313.315 430.518 306.745C430.518 300.145 429.513 294.415 427.503 289.555C425.493 284.695 422.733 280.945 419.223 278.305C415.743 275.635 411.738 274.3 407.208 274.3C402.708 274.3 398.703 275.635 395.193 278.305C391.683 280.945 388.923 284.695 386.913 289.555C384.903 294.415 383.898 300.145 383.898 306.745C383.898 313.345 384.903 319.105 386.913 324.025C388.923 328.915 391.683 332.725 395.193 335.455C398.703 338.155 402.708 339.505 407.208 339.505Z" fill="#036B52"/>
<path d="M65.5391 291.093C109.317 393.668 226.558 441.132 327.403 397.108C428.248 353.084 474.51 234.242 430.732 131.667" stroke="#3D495C" stroke-width="2" stroke-linecap="round" stroke-linejoin="round" stroke-dasharray="1 6"/>
<path d="M36.7895 217.359L40.2618 218.515C43.9376 220.159 48.4729 222.186 52.7782 226.589C58.2043 232.137 63.2863 241.385 66.8805 258.345L77.662 261.59C77.8717 261.654 78.0309 261.827 78.0772 262.044L80.632 273.976C80.7186 274.381 80.3883 274.752 79.9815 274.708L69.7611 273.596L69.4359 277.65L68.8119 278.162C63.9655 282.141 58.0289 283.61 55.5436 283.863L54.7409 283.945L51.8103 281.363L45.5202 289.59C45.2641 289.925 44.7562 289.899 44.5356 289.539L38.1983 279.199C38.0896 279.022 38.0786 278.8 38.1694 278.613L42.9942 268.642C33.8246 254.159 30.7989 244.027 30.5939 236.216C30.4207 229.616 33.8469 220.694 33.8469 220.694L35.3647 217.924C35.644 217.414 36.2422 217.177 36.7895 217.359Z" fill="#2FC18C"/>
<path fill-rule="evenodd" clip-rule="evenodd" d="M34.7089 217.556C35.1628 216.728 36.1348 216.343 37.0243 216.639L40.5315 217.807L40.5865 217.831C44.263 219.475 48.9064 221.55 53.3117 226.055C58.826 231.694 63.914 240.983 67.5201 257.746L77.8761 260.863C78.3481 261.005 78.7062 261.396 78.8104 261.883L81.3652 273.816C81.5601 274.726 80.8168 275.562 79.9015 275.462L70.4466 274.433L70.1577 278.034L69.2848 278.751C64.2963 282.846 58.2086 284.354 55.6189 284.618L54.4933 284.733L51.9175 282.463L46.1137 290.054C45.5375 290.808 44.3947 290.748 43.8984 289.938L37.5611 279.599C37.3164 279.2 37.2918 278.701 37.496 278.28L42.1358 268.692C33.1013 254.333 30.0527 244.17 29.8444 236.236C29.7548 232.82 30.5928 228.852 31.4328 225.778C31.8552 224.232 32.2828 222.896 32.6051 221.945C32.7663 221.47 32.9013 221.09 32.9963 220.829C33.0439 220.698 33.0814 220.597 33.1073 220.528C33.1202 220.493 33.1302 220.467 33.1371 220.449L33.145 220.428L33.1478 220.421C33.1478 220.42 33.1481 220.42 33.8471 220.694L33.1481 220.42L33.1665 220.372L34.7089 217.556ZM34.5285 221.016C34.5234 221.029 34.5173 221.046 34.5101 221.065C34.4859 221.13 34.45 221.226 34.4042 221.352C34.3125 221.605 34.1812 221.974 34.0239 222.438C33.7092 223.366 33.2911 224.672 32.8785 226.182C32.0487 229.219 31.2602 233.011 31.3438 236.195C31.5439 243.818 34.4974 253.814 43.6261 268.233L43.8535 268.593L38.8797 278.871L45.0594 288.953L51.7036 280.263L54.989 283.158L55.4688 283.109C57.8496 282.866 63.6352 281.435 68.3395 277.573L68.7146 277.265L69.0761 272.758L79.8553 273.931L77.3632 262.292L66.2406 258.944L66.1474 258.504C62.5705 241.625 57.535 232.531 52.2452 227.122C48.0613 222.844 43.6577 220.863 39.9925 219.224L36.5553 218.08C36.35 218.011 36.1257 218.1 36.0209 218.291L34.5285 221.016ZM79.8993 274.137C79.8992 274.136 79.8991 274.136 79.8991 274.136ZM80.0611 273.954C80.0614 273.954 80.0617 273.954 80.0619 273.954ZM44.9271 289.126C44.927 289.126 44.9273 289.126 44.9271 289.126Z" fill="#036B52"/>
<path d="M31.7848 241.906L56.4519 231.036C52.8149 223.468 41.1737 218.756 35.8078 217.346C29.8497 228.074 30.6432 238.19 31.7848 241.906Z" fill="#036B52"/>
<path fill-rule="evenodd" clip-rule="evenodd" d="M70.5208 273.613L67.4476 257.308L65.9742 257.592L69.0474 273.897L70.5208 273.613Z" fill="#036B52"/>
<path fill-rule="evenodd" clip-rule="evenodd" d="M52.738 281.431L43.2938 267.664L42.0615 268.528L51.5056 282.296L52.738 281.431Z" fill="#036B52"/>
<path d="M50.421 255.234L48.8874 259.296C48.8528 259.396 48.7926 259.483 48.7136 259.548C48.6346 259.613 48.5399 259.654 48.44 259.665C48.3647 259.676 48.2878 259.672 48.2137 259.652C48.1396 259.632 48.0698 259.596 48.0084 259.548C47.9471 259.499 47.8954 259.437 47.8564 259.367C47.8174 259.297 47.7918 259.219 47.7813 259.139L46.7582 251.575C46.7352 251.439 46.7561 251.3 46.8176 251.18C46.879 251.06 46.9774 250.966 47.0964 250.914C47.2155 250.862 47.3482 250.854 47.4729 250.893C47.5975 250.931 47.7068 251.014 47.7826 251.126L50.3384 254.616C50.4005 254.702 50.4398 254.803 50.4521 254.909C50.469 255.019 50.4582 255.131 50.421 255.234V255.234Z" fill="white"/>
<path d="M52.7062 256.231L51.1607 260.284C51.1217 260.386 51.1071 260.498 51.1182 260.608C51.145 260.768 51.2284 260.912 51.3511 261.009C51.4737 261.107 51.6264 261.152 51.7776 261.134C51.8773 261.121 51.9717 261.08 52.0514 261.016L57.695 256.381C57.7745 256.318 57.8364 256.234 57.8742 256.136C57.9119 256.039 57.9242 255.932 57.9097 255.827C57.9003 255.745 57.8755 255.666 57.837 255.594C57.7985 255.522 57.7469 255.458 57.6853 255.407C57.6236 255.356 57.5532 255.319 57.4782 255.297C57.4031 255.275 57.3249 255.269 57.2481 255.279L53.16 255.862C53.0592 255.873 52.9637 255.913 52.8837 255.978C52.8037 256.044 52.7423 256.131 52.7062 256.231V256.231Z" fill="white"/>
<path d="M52.8168 253.232L56.9072 252.672C57.0323 252.654 57.1479 252.593 57.2361 252.499C57.3244 252.404 57.3804 252.28 57.3954 252.147C57.4105 252.014 57.3838 251.879 57.3195 251.762C57.2551 251.646 57.1568 251.554 57.0395 251.503L50.3736 248.573C50.2764 248.53 50.171 248.513 50.0668 248.524C49.9159 248.548 49.7807 248.635 49.69 248.764C49.5993 248.894 49.5603 249.056 49.5812 249.217C49.599 249.324 49.642 249.424 49.7059 249.508L52.2821 252.996C52.3439 253.082 52.4261 253.15 52.5202 253.191C52.6142 253.232 52.7166 253.247 52.8168 253.232V253.232Z" fill="white"/>
<circle r="7" transform="matrix(-1 0 0 1 430 128)" fill="#2FC18C"/>
</svg>
